<svg xmlns="http://www.w3.org/2000/svg" viewBox="0 0 65.23 40.7" height="153.83" width="246.54">
  <g fill="none" stroke="#000" stroke-linecap="round" stroke-linejoin="round" stroke-miterlimit="10">
    <path d="M50.37 4.5l10.6 6.12" stroke-width=".40001849999999994"/>
    <path d="M60.98 8.66v1.96" stroke-width=".1498482"/>
    <path d="M47.96 6.13v2.45M43.35 8.79v1.72M36.77 4.99v2.45M39.45 26.85l23.42-13.52M50.37 2.54l10.6 6.12M18.87 14.97l1.23.71M37.82 25.91l1.63.94M44.8 20.64l9.35-5.4M39.45 28.81L62.87 15.3" stroke-width=".40001849999999994"/>
    <path d="M26.19 13.44L2.85 26.91" stroke-width=".1498482"/>
    <path d="M24.31 13.25L.98 26.73M46.13 4.99l10.6 6.12" stroke-width=".40001849999999994"/>
    <path d="M50.37 2.54V4.5" stroke-width=".1498482"/>
    <path d="M38.5 20.54l-12.31-7.1M35.31 15.15l9.35-5.4M36.77 4.99l4.6-2.66" stroke-width=".40001849999999994"/>
    <path d="M38.5 20.54L15.15 34.02" stroke-width=".1498482"/>
    <path d="M52.72 1.45L62.87 7.3M15.16 34.02l-12.3-7.1M37.82 25.91L41 24.08M15.16 40.14l-12.3-7.1M17.03 40.33L38.21 28.1M36.77 7.44l5.95 3.44M45.28 10.12l2.68-1.54M35.31 17.36l9.5 5.48M54.15 15.24v2.2M44.8 22.84l9.35-5.4M39.45 26.85v1.96M37.82 27.87l1.63.94" stroke-width=".40001849999999994"/>
    <path d="M62.87 13.33v1.96" stroke-width=".1498482"/>
    <path d="M35.31 15.15v2.2M35.31 15.15l9.5 5.49M36.77 4.99l6.58 3.8M41.37 2.33l6.59 3.8M44.66 9.76l9.5 5.48M18.87 14.97L42.29 1.45M43.35 8.79l4.6-2.66M18.87 14.97v1.43M44.8 20.64v2.2M65.03 12.28v-1.96M61.33 10.87c-.1-.09-.22-.17-.35-.25M62.87 13.33c1.38-.8 2.16-1.88 2.16-3.01s-.78-2.22-2.16-3.01M50.37 4.5a4.34 4.34 0 00-2.12-.5c-.99 0-1.91.27-2.47.74M41 24.08a6.1 6.1 0 00-2.5-3.54M15.16 40.14c.7.4 1.37.47 1.87.19 1.04-.6 1.04-2.54 0-4.33a5.43 5.43 0 00-1.87-1.98" stroke-width=".40001849999999994"/>
    <path d="M50.37 2.54a4.34 4.34 0 00-2.12-.5c-1.66 0-3 .77-3 1.72 0 .46.32.9.88 1.23M37.82 27.87c.19-.52.19-1.21 0-1.96M52.72 1.45A10.68 10.68 0 0047.51.2c-1.96 0-3.83.45-5.22 1.25M2.85 26.91c-.7-.4-1.38-.47-1.87-.18-1.04.6-1.04 2.53 0 4.33.5.86 1.17 1.57 1.87 1.98M26.19 13.44c-.7-.4-1.38-.47-1.88-.19M62.87 15.29c1.38-.8 2.16-1.88 2.16-3.01M56.74 11.11c.56.33 1.32.51 2.12.51 1.65 0 3-.78 3-1.73 0-.46-.32-.9-.88-1.23" stroke-width=".40001849999999994"/>
  </g>
</svg>
